# xmcd
#
# Track frame offsets:
#	150
#	12450
#	26074
#	37966
#	51239
#	65667
#	79771
#	92858
#	106870
#	119132
#	132257
#	146729
#	159973
#	173923
#	186075
#	200437
#	212396
#	225774
#	236951
#	248672
#
# Disc length: 3531 seconds
#
# Revision: 0
# Processed by: cddbd v1.5PL3 Copyright (c) Steve Scherf et al.
# Submitted via: dBpowerAMP V4.0
#
DISCID=130dc914
DTITLE=Hank Snow - The Country Collection
DYEAR=2002
DGENRE=Country
TTITLE0=Lonesome Blue Yodel
TTITLE1=The Hobo's Last Ride
TTITLE2=Marriage Vow
TTITLE3=My San Antonio Mama
TTITLE4=The Galvestone Rose
TTITLE5=The Blue Velvet Band
TTITLE6=Blues For Old Hawaii
TTITLE7=Was There Ever A Pal Like You
TTITLE8=My Little Swiss Maiden
TTITLE9=We Met In The Hills Of Old Wyoming
TTITLE10=Someday You'll Care
TTITLE11=The Texas Cowboy
TTITLE12=Bluer Than Blue
TTITLE13=Wandering On
TTITLE14=The Broken Wedding Ring
TTITLE15=The Rainbow's End
TTITLE16=We'll Never Say Goodbye
TTITLE17=Born To Lose
TTITLE18=I'm Moving On
TTITLE19=I'm Thinking Tonight Of My Blue Eyes
EXTD=
EXTT0=
EXTT1=
EXTT2=
EXTT3=
EXTT4=
EXTT5=
EXTT6=
EXTT7=
EXTT8=
EXTT9=
EXTT10=
EXTT11=
EXTT12=
EXTT13=
EXTT14=
EXTT15=
EXTT16=
EXTT17=
EXTT18=
EXTT19=
PLAYORDER=
